<svg xmlns="http://www.w3.org/2000/svg" viewBox="0 0 512 512">
  <defs>
    <linearGradient id="bgGrad" x1="0%" y1="0%" x2="100%" y2="100%">
      <stop offset="0%" style="stop-color:#2563eb"/>
      <stop offset="100%" style="stop-color:#1d4ed8"/>
    </linearGradient>
  </defs>
  <!-- Background -->
  <rect width="512" height="512" rx="80" fill="url(#bgGrad)"/>
  <!-- Heart with medical cross -->
  <path d="M256 420c-8 0-16-3-22-9L108 285c-50-50-50-131 0-181 48-48 126-48 174 0l-26 26-22-22c-36-36-94-36-130 0-36 36-36 94 0 130l126 126 126-126c36-36 36-94 0-130-36-36-94-36-130 0l-22 22-26-26c48-48 126-48 174 0 50 50 50 131 0 181L278 411c-6 6-14 9-22 9z" fill="white" transform="translate(0, 20) scale(0.85)" transform-origin="center"/>
  <!-- Chain link -->
  <ellipse cx="256" cy="400" rx="60" ry="20" fill="white" opacity="0.3"/>
  <path d="M180 380h40v40h-40z M220 380h40v40h-40z M260 380h40v40h-40z" fill="white" opacity="0.6"/>
  <!-- Blockchain dots -->
  <circle cx="140" cy="400" r="12" fill="white" opacity="0.5"/>
  <circle cx="372" cy="400" r="12" fill="white" opacity="0.5"/>
  <path d="M152 400h28M332 400h28" stroke="white" stroke-width="4" opacity="0.5"/>
</svg>
